# Blender v2.90.0 OBJ File: ''
# www.blender.org
mtllib super hammer.mtl
o Cube.001
v -0.234015 -3.151487 0.365162
v -0.365602 -3.151487 -0.233327
v 0.234016 -3.151487 -0.365162
v 0.365603 -3.151487 0.233327
v 0.365602 3.337439 0.233327
v 0.234015 3.337439 -0.365162
v -0.365603 3.337439 -0.233327
v -0.234016 3.337439 0.365162
vt 0.625000 0.500000
vt 0.875000 0.500000
vt 0.875000 0.750000
vt 0.625000 0.750000
vt 0.375000 0.750000
vt 0.625000 1.000000
vt 0.375000 1.000000
vt 0.375000 0.000000
vt 0.625000 0.000000
vt 0.625000 0.250000
vt 0.375000 0.250000
vt 0.125000 0.500000
vt 0.375000 0.500000
vt 0.125000 0.750000
vn 0.0000 -1.0000 -0.0000
vn 0.9767 0.0000 -0.2147
vn -0.2147 0.0000 -0.9767
vn 0.0000 1.0000 0.0000
vn 0.2147 -0.0000 0.9767
vn -0.9767 -0.0000 0.2147
usemtl Material.001
s 1
f 1/1/1 2/2/1 3/3/1 4/4/1
f 5/5/2 4/4/2 3/6/2 6/7/2
f 6/8/3 3/9/3 2/10/3 7/11/3
f 7/12/4 8/13/4 5/5/4 6/14/4
f 8/13/5 1/1/5 4/4/5 5/5/5
f 7/11/6 2/10/6 1/1/6 8/13/6
o Cube.002
v -1.625555 3.177062 1.243909
v -1.997669 3.177062 -0.446154
v 1.625554 3.177062 -1.243908
v 1.997669 3.177062 0.446155
v 1.625553 5.001068 -1.243908
v -1.997670 5.001067 -0.446154
v -1.625555 5.001067 1.243909
v 1.997668 5.001068 0.446155
v -1.940849 4.722545 -0.188086
v -1.940848 3.455583 -0.188086
v -3.334125 3.887290 0.538082
v -4.085132 4.290836 0.703437
v 1.691892 4.675897 -0.942615
v 1.691892 3.502233 -0.942615
v 1.931330 3.502233 0.144861
v 1.931330 4.675897 0.144861
v 2.006052 4.675897 -1.011786
v 2.245490 4.675897 0.075690
v 2.329003 4.964001 0.337192
v 1.972012 4.964001 -1.284181
v 2.329003 3.214128 0.337192
v 2.643365 3.214128 0.267976
v 2.643365 4.964001 0.267976
v 2.245490 3.502233 0.075690
v 2.006052 3.502233 -1.011786
v 1.972013 3.214128 -1.284181
v 2.286375 3.214128 -1.353396
v 2.912456 3.618142 -1.098752
v 3.104601 3.618142 -0.226071
v 2.286375 4.964001 -1.353396
v 2.912455 4.559988 -1.098752
v 3.104601 4.559988 -0.226071
v -1.682376 4.722545 0.985840
v -1.682376 3.455583 0.985840
v -4.002805 3.887290 1.077349
v -4.002805 4.290836 1.077349
vt 0.625000 0.500000
vt 0.875000 0.500000
vt 0.875000 0.750000
vt 0.625000 0.750000
vt 0.375000 0.000000
vt 0.625000 0.000000
vt 0.625000 0.250000
vt 0.375000 0.250000
vt 0.125000 0.500000
vt 0.375000 0.500000
vt 0.375000 0.750000
vt 0.125000 0.750000
vt 0.413174 0.288174
vt 0.586826 0.288174
vt 0.586826 0.288174
vt 0.413174 0.288174
vt 0.281054 0.750000
vt 0.718946 0.750000
vt 0.602781 0.750000
vt 0.397219 0.750000
vt 0.281054 0.750000
vt 0.397219 0.750000
vt 0.397219 0.750000
vt 0.281054 0.750000
vt 0.602781 0.750000
vt 0.602781 0.750000
vt 0.397219 0.750000
vt 0.602781 0.750000
vt 0.718946 0.750000
vt 0.718946 0.750000
vt 0.718946 0.750000
vt 0.718946 0.750000
vt 0.602781 0.750000
vt 0.281054 0.750000
vt 0.281054 0.750000
vt 0.397219 0.750000
vt 0.413174 0.461826
vt 0.586826 0.461826
vt 0.586826 0.461826
vt 0.413174 0.461826
vn 0.0000 -1.0000 -0.0000
vn -0.2150 0.0000 -0.9766
vn -0.0000 1.0000 0.0000
vn 0.2150 0.0000 0.9766
vn -0.4139 -0.0965 -0.9052
vn 0.9766 0.0000 -0.2150
vn -0.9729 0.0876 0.2142
vn -0.9526 -0.0000 0.3042
vn -0.9729 -0.0876 0.2142
vn -0.9923 -0.0000 0.1240
vn 0.5736 -0.8093 -0.1263
vn 0.3768 0.0000 -0.9263
vn 0.5736 0.8093 -0.1263
vn 0.7310 -0.0000 0.6824
vn -0.9766 -0.0000 0.2150
vn -0.6983 -0.5579 -0.4484
vn -0.1812 0.9826 0.0399
vn -0.2380 -0.9696 -0.0570
vn 0.0394 -0.0000 0.9992
usemtl Material.002
s 1
f 9/15/7 10/16/7 11/17/7 12/18/7
f 13/19/8 11/20/8 10/21/8 14/22/8
f 14/23/9 15/24/9 16/25/9 13/26/9
f 15/24/10 9/15/10 12/18/10 16/25/10
f 17/27/11 18/28/11 19/29/11 20/30/11
f 21/31/12 22/32/12 11/17/12 13/26/12
f 23/33/12 24/34/12 16/25/12 12/18/12
f 22/32/12 23/33/12 12/18/12 11/17/12
f 24/34/12 21/31/12 13/26/12 16/25/12
f 25/35/13 26/36/13 27/37/13 28/38/13
f 27/37/10 29/39/10 30/40/10 31/41/10
f 26/36/14 32/42/14 29/39/14 27/37/14
f 32/42/15 33/43/15 34/44/15 29/39/15
f 33/43/16 25/35/16 28/38/16 34/44/16
f 30/40/17 35/45/17 36/46/17 37/47/17
f 29/39/7 34/44/7 35/45/7 30/40/7
f 34/44/8 28/38/8 38/48/8 35/45/8
f 28/38/9 27/37/9 31/41/9 38/48/9
f 39/49/12 40/50/12 37/47/12 36/46/12
f 35/45/18 38/48/18 39/49/18 36/46/18
f 38/48/19 31/41/19 40/50/19 39/49/19
f 31/41/20 30/40/20 37/47/20 40/50/20
f 17/27/21 41/51/21 15/24/21 14/22/21
f 41/51/21 42/52/21 9/15/21 15/24/21
f 18/28/21 17/27/21 14/22/21 10/21/21
f 42/52/21 18/28/21 10/21/21 9/15/21
f 20/30/22 19/29/22 43/53/22 44/54/22
f 41/51/23 17/27/23 20/30/23 44/54/23
f 18/28/24 42/52/24 43/53/24 19/29/24
f 42/52/25 41/51/25 44/54/25 43/53/25
usemtl Material.003
f 23/33/7 22/32/7 33/43/7 32/42/7
f 22/32/8 21/31/8 25/35/8 33/43/8
f 21/31/9 24/34/9 26/36/9 25/35/9
f 24/34/10 23/33/10 32/42/10 26/36/10
